<svg xmlns="http://www.w3.org/2000/svg" viewBox="0 0 1200 750"><defs><radialGradient id="bg"><stop stop-color="#304c4d"/><stop offset="1" stop-color="#14212c"/></radialGradient><g id="cat"><path d="M-60 0-30-52 30-52 60 0 30 52-30 52Z" fill="currentColor"/><path d="m-38-17 1-38 26 20m22 0 26-20 1 38" fill="currentColor" stroke="#26334855" stroke-width="2"/><path d="M-18-10v8m36-8v8m-23 12 5 5 5-5m-5 5q-5 12-12 4m12-4q5 12 12 4m-41-6-12-3m12 12-12 3m58-12 12-3m-12 12 12 3" fill="none" stroke="#203247" stroke-width="4" stroke-linecap="round"/></g></defs><rect width="1200" height="750" fill="url(#bg)"/><circle cx="970" cy="110" r="300" fill="none" stroke="#a5edc818"/><circle cx="970" cy="110" r="380" fill="none" stroke="#a5edc80d"/><text x="85" y="108" fill="#b6cbc9" font-family="Arial,sans-serif" font-size="17" letter-spacing="5">UN PICCOLO POSTO TRANQUILLO</text><text x="80" y="258" fill="#eaf0e5" font-family="Arial,sans-serif" font-size="112" font-weight="bold" letter-spacing="-7">Micio</text><text x="80" y="372" fill="#a5edc8" font-family="Arial,sans-serif" font-size="112" font-weight="bold" letter-spacing="-7">Incastro<tspan fill="#c5adff">.</tspan></text><text x="86" y="441" fill="#adc0c4" font-family="Arial,sans-serif" font-size="25">Tutti i gatti. Al posto giusto.</text><g transform="translate(810 300)"><use href="#cat" color="#c5adff"/><use href="#cat" x="93" y="54" color="#c5adff"/><use href="#cat" x="93" y="162" color="#88cfff"/><use href="#cat" y="216" color="#88cfff"/><use href="#cat" x="186" y="216" color="#ffb18d"/><use href="#cat" y="108" color="#a5edc8"/><use href="#cat" x="-93" y="162" color="#a5edc8"/><use href="#cat" x="-93" y="270" color="#a5edc8"/><use href="#cat" x="93" y="270" color="#ffb18d"/></g><rect x="85" y="533" width="325" height="64" rx="32" fill="#a5edc8"/><text x="124" y="574" fill="#193c35" font-family="Arial,sans-serif" font-size="23">Un incastro alla volta →</text><text x="85" y="685" fill="#8ca5ab" font-family="Arial,sans-serif" font-size="15" letter-spacing="3">PC + TELEFONO / SENZA FRETTA / SENZA PUBBLICITÀ</text></svg>
